<svg xmlns="http://www.w3.org/2000/svg" viewBox="0 0 64 64" role="img" aria-label="Trivia">
  <rect width="64" height="64" rx="14" fill="#f7fbf7" />
  <path d="M8 18c6-8 14-12 24-12 13 0 24 8 24 20 0 11-9 18-22 18H18c-7 0-12-5-12-12 0-5 1-9 2-14Z" fill="#36b99f" stroke="#2d3440" stroke-width="4" />
  <circle cx="49" cy="16" r="7" fill="#ffd24a" stroke="#2d3440" stroke-width="3" />
  <path d="M24 25c0-6 5-10 12-10 7 0 12 4 12 10 0 5-3 8-8 11-3 2-4 3-4 7" fill="none" stroke="#ffffff" stroke-width="8" stroke-linecap="round" stroke-linejoin="round" />
  <path d="M24 25c0-6 5-10 12-10 7 0 12 4 12 10 0 5-3 8-8 11-3 2-4 3-4 7" fill="none" stroke="#2d3440" stroke-width="3" stroke-linecap="round" stroke-linejoin="round" />
  <circle cx="36" cy="52" r="5" fill="#ff6f7d" stroke="#2d3440" stroke-width="3" />
</svg>
